<?xml version="1.0" standalone="no"?>
<!DOCTYPE svg PUBLIC "-//W3C//DTD SVG 1.1//EN" "http://www.w3.org/Graphics/SVG/1.1/DTD/svg11.dtd" >
<svg xmlns="http://www.w3.org/2000/svg">
<metadata>Generated by IcoMoon</metadata>
<defs>
<font id="icomoon" horiz-adv-x="1024">
<font-face units-per-em="1024" ascent="960" descent="-64" />
<missing-glyph horiz-adv-x="1024" />
<glyph unicode="&#x20;" horiz-adv-x="512" d="" />
<glyph unicode="&#xe900;" glyph-name="instagram" d="M735.232 724.48c-28.672 0-51.2-22.528-51.2-51.2s22.528-51.2 51.2-51.2c28.672 0 51.2 22.528 51.2 51.2s-22.528 51.2-51.2 51.2zM509.952 665.088c-118.784 0-217.088-96.256-217.088-217.088s96.256-217.088 217.088-217.088 217.088 98.304 217.088 217.088-96.256 217.088-217.088 217.088zM509.952 308.736c-77.824 0-141.312 63.488-141.312 141.312s63.488 141.312 141.312 141.312c77.824 0 141.312-63.488 141.312-141.312 0-79.872-63.488-141.312-141.312-141.312zM335.872 867.84c-69.632-4.096-129.024-20.48-178.176-67.584-49.152-49.152-65.536-108.544-67.584-178.176-2.048-43.008-14.336-366.592 20.48-450.56 22.528-57.344 65.536-100.352 122.88-122.88 26.624-10.24 57.344-18.432 102.4-20.48 376.832-16.384 516.096-8.192 573.44 143.36 10.24 26.624 18.432 57.344 20.48 102.4 18.432 378.88-2.048 460.8-67.584 526.336-51.2 51.2-112.64 86.016-526.336 67.584zM854.016 278.016c-2.048-40.96-8.192-63.488-14.336-77.824-38.912-98.304-126.976-112.64-499.712-94.208-40.96 2.048-63.488 8.192-77.824 14.336-36.864 14.336-65.536 40.96-79.872 79.872-26.624 63.488-16.384 368.64-14.336 419.84 2.048 49.152 12.288 92.16 47.104 126.976 43.008 43.008 96.256 63.488 468.992 47.104 49.152-2.048 92.16-12.288 126.976-47.104 38.912-43.008 61.44-98.304 43.008-468.992z" />
<glyph unicode="&#xe901;" glyph-name="in" d="M858.112 869.888h-692.224c-43.008 0-75.776-34.816-75.776-75.776v-692.224c0-43.008 34.816-75.776 75.776-75.776h692.224c43.008 0 75.776 34.816 75.776 75.776v692.224c0 40.96-34.816 75.776-75.776 75.776zM364.544 732.672c28.672 0 51.2-22.528 51.2-51.2s-22.528-51.2-51.2-51.2c-28.672 0-51.2 22.528-51.2 51.2 0 30.72 22.528 51.2 51.2 51.2zM708.608 247.296c-67.584 0-90.112 53.248-71.68 110.592l24.576 90.112c12.288 38.912-2.048 73.728-40.96 73.728-34.816 0-59.392-32.768-71.68-81.92l-49.152-202.752h-83.968l14.336 67.584c-24.576-40.96-59.392-63.488-102.4-63.488-65.536 0-86.016 36.864-71.68 100.352l38.912 147.456h-59.392l18.432 83.968h143.36l-57.344-221.184c-6.144-24.576-12.288-49.152 12.288-55.296 6.144-2.048 61.44-12.288 90.112 53.248l36.864 139.264h-61.44l18.432 83.968h129.024l-12.288-69.632c22.528 43.008 67.584 86.016 112.64 86.016 73.728 0 104.448-71.68 79.872-153.6l-24.576-86.016c-14.336-59.392 28.672-67.584 55.296 8.192l32.768-12.288c-18.432-69.632-55.296-98.304-100.352-98.304z" />
<glyph unicode="&#xe902;" glyph-name="facebook" d="M421.888 17.92h167.936v378.88h118.784l18.432 167.936h-137.216v98.304c0 43.008 2.048 71.68 63.488 71.68h63.488v137.216c0 2.048-53.248 6.144-108.544 6.144-114.688 0-186.368-69.632-186.368-198.656v-112.64h-126.976v-167.936h126.976v-380.928z" />
<glyph unicode="&#xe903;" glyph-name="twitter" d="M911.36 777.728c-34.816-20.48-71.68-34.816-110.592-43.008-65.536 69.632-176.128 73.728-245.76 8.192-45.056-43.008-63.488-104.448-49.152-165.888-139.264 6.144-268.288 73.728-356.352 180.224-47.104-77.824-22.528-178.176 53.248-229.376-28.672 2.048-55.296 8.192-79.872 22.528 0 0 0-2.048 0-2.048 0-81.92 57.344-153.6 139.264-169.984-24.576-6.144-53.248-8.192-77.824-2.048 22.528-69.632 88.064-118.784 161.792-120.832-61.44-49.152-137.216-73.728-215.040-73.728-14.336 0-26.624 0-40.96 2.048 79.872-51.2 172.032-77.824 266.24-77.824v0c319.488 0 493.568 264.192 493.568 493.568 0 8.192 0 14.336 0 22.528 34.816 24.576 63.488 55.296 86.016 90.112-30.72-14.336-65.536-22.528-100.352-26.624 34.816 18.432 61.44 53.248 75.776 92.16z" />
<glyph unicode="&#xe904;" glyph-name="app" d="M749.568 857.6h-475.136c-18.432 0-34.816-14.336-34.816-34.816v-749.568c0-18.432 14.336-34.816 34.816-34.816h477.184c18.432 0 34.816 14.336 34.816 34.816v749.568c-2.048 18.432-16.384 34.816-36.864 34.816zM716.8 108.032h-409.6v679.936h409.6v-679.936zM342.016 261.632h339.968c10.24 0 16.384 8.192 16.384 16.384v432.128c0 10.24-8.192 16.384-16.384 16.384h-339.968c-10.24 0-16.384-8.192-16.384-16.384v-432.128c-2.048-10.24 6.144-16.384 16.384-16.384zM358.4 691.712h307.2v-397.312h-307.2v397.312zM512 224.768c-22.528 0-40.96-18.432-40.96-40.96s18.432-40.96 40.96-40.96c22.528 0 40.96 18.432 40.96 40.96s-18.432 40.96-40.96 40.96z" />
<glyph unicode="&#xe905;" glyph-name="clock" d="M512 732.672c-18.432 0-34.816-16.384-34.816-34.816v-235.52l-94.208-94.208c-14.336-14.336-14.336-34.816 0-49.152 6.144-6.144 16.384-10.24 24.576-10.24s18.432 4.096 24.576 10.24l100.352 100.352c0 0 2.048 2.048 2.048 2.048 8.192 6.144 12.288 16.384 12.288 26.624v249.856c0 20.48-16.384 34.816-34.816 34.816zM917.504 448c0 223.232-182.272 405.504-405.504 405.504s-405.504-182.272-405.504-405.504c0 0 0 0 0 0s0 0 0 0 0 0 0 0c0-223.232 182.272-405.504 405.504-405.504s405.504 182.272 405.504 405.504c0 0 0 0 0 0s0 0 0 0 0 0 0 0zM694.272 167.424l-10.24 16.384c-4.096 8.192-16.384 10.24-24.576 6.144s-10.24-16.384-6.144-24.576l10.24-16.384c-36.864-18.432-77.824-30.72-120.832-34.816-6.144 12.288-18.432 20.48-32.768 20.48s-26.624-8.192-32.768-20.48c-43.008 4.096-83.968 16.384-120.832 34.816l10.24 16.384c4.096 8.192 2.048 18.432-6.144 24.576-8.192 4.096-18.432 2.048-24.576-6.144l-10.24-16.384c-38.912 26.624-73.728 59.392-98.304 98.304l16.384 10.24c8.192 4.096 10.24 14.336 6.144 24.576-4.096 8.192-16.384 10.24-24.576 6.144l-16.384-10.24c-18.432 36.864-30.72 77.824-34.816 120.832 12.288 6.144 20.48 18.432 20.48 32.768s-8.192 26.624-20.48 32.768c4.096 43.008 16.384 83.968 34.816 120.832l16.384-10.24c2.048-2.048 6.144-2.048 8.192-2.048 6.144 0 12.288 4.096 14.336 8.192 4.096 8.192 2.048 18.432-6.144 24.576l-16.384 10.24c26.624 38.912 59.392 73.728 98.304 98.304l10.24-16.384c4.096-6.144 8.192-8.192 14.336-8.192 2.048 0 6.144 0 8.192 2.048 8.192 4.096 10.24 16.384 6.144 24.576l-10.24 16.384c36.864 18.432 77.824 30.72 120.832 34.816 6.144-12.288 18.432-20.48 32.768-20.48s26.624 8.192 32.768 20.48c43.008-4.096 83.968-16.384 120.832-34.816l-4.096-20.48c-4.096-8.192-2.048-18.432 6.144-24.576 2.048-2.048 6.144-2.048 8.192-2.048 6.144 0 12.288 4.096 14.336 8.192l10.24 16.384c38.912-26.624 73.728-59.392 98.304-98.304l-16.384-10.24c-8.192-4.096-10.24-16.384-6.144-24.576 4.096-6.144 8.192-8.192 14.336-8.192 2.048 0 6.144 0 8.192 2.048l16.384 10.24c18.432-36.864 30.72-77.824 34.816-120.832-12.288-6.144-20.48-18.432-20.48-32.768s8.192-26.624 20.48-32.768c-4.096-43.008-16.384-83.968-34.816-120.832l-14.336 12.288c-8.192 4.096-18.432 2.048-24.576-6.144-4.096-8.192-2.048-18.432 6.144-24.576l16.384-10.24c-24.576-36.864-59.392-71.68-98.304-96.256z" />
<glyph unicode="&#xe906;" glyph-name="search" d="M724.992 278.016c53.248 61.44 86.016 141.312 86.016 229.376 0 192.512-157.696 350.208-350.208 350.208s-350.208-157.696-350.208-350.208c0-192.512 157.696-350.208 350.208-350.208 79.872 0 153.6 26.624 212.992 73.728l178.176-178.176c6.144-6.144 16.384-10.24 24.576-10.24s18.432 4.096 24.576 10.24c14.336 14.336 14.336 36.864 0 49.152l-176.128 176.128zM180.224 505.344c0 153.6 124.928 280.576 280.576 280.576 153.6 0 280.576-124.928 280.576-280.576 0-153.6-124.928-280.576-280.576-280.576-153.6 2.048-280.576 126.976-280.576 280.576z" />
<glyph unicode="&#xe907;" glyph-name="accordion-arrow" d="M567.296 718.336c-12.288 16.384-32.768 18.432-49.152 8.192-16.384-12.288-18.432-32.768-8.192-49.152l167.936-229.376-165.888-229.376c-12.288-16.384-8.192-38.912 8.192-49.152 6.144-4.096 14.336-6.144 20.48-6.144 10.24 0 22.528 4.096 28.672 14.336l180.224 249.856c8.192 12.288 8.192 28.672 0 40.96l-182.272 249.856zM514.048 468.48l-182.272 249.856c-12.288 16.384-32.768 18.432-49.152 8.192-16.384-12.288-18.432-32.768-8.192-49.152l165.888-229.376-165.888-229.376c-12.288-16.384-8.192-38.912 8.192-49.152 6.144-4.096 14.336-6.144 20.48-6.144 10.24 0 22.528 4.096 28.672 14.336l182.272 249.856c8.192 12.288 8.192 28.672 0 40.96z" />
<glyph unicode="&#xe908;" glyph-name="pdf-file" d="M802.816 847.36h-581.632c-20.48 0-34.816-16.384-34.816-34.816 0-20.48 16.384-34.816 34.816-34.816h544.768v-462.848h-178.176c-10.24 0-18.432-8.192-18.432-18.432v-178.176h-311.296v178.176c0 20.48-16.384 34.816-34.816 34.816-20.48 0-34.816-16.384-34.816-34.816v-212.992c0-20.48 16.384-34.816 34.816-34.816h366.592c10.24 0 18.432 4.096 24.576 10.24l212.992 212.992c6.144 6.144 10.24 16.384 10.24 24.576v516.096c0 20.48-16.384 34.816-34.816 34.816zM606.208 151.040v126.976h126.976l-126.976-126.976zM251.904 517.632h24.576c51.2 0 75.776 28.672 75.776 79.872v43.008c0 51.2-24.576 79.872-75.776 79.872h-75.776v-323.584h51.2v120.832zM251.904 673.28h24.576c16.384 0 24.576-8.192 24.576-30.72v-49.152c0-22.528-8.192-30.72-24.576-30.72h-24.576v110.592zM530.432 476.672v163.84c0 51.2-24.576 79.872-75.776 79.872h-79.872v-323.584h79.872c51.2 0 75.776 28.672 75.776 79.872zM479.232 474.624c0-22.528-10.24-30.72-26.624-30.72h-28.672v229.376h28.672c16.384 0 26.624-8.192 26.624-30.72v-167.936zM698.368 673.28v47.104h-135.168v-323.584h51.2v133.12h65.536v47.104h-65.536v96.256z" />
<glyph unicode="&#xe909;" glyph-name="view" d="M512 697.856c-157.696 0-294.912-96.256-342.016-239.616-2.048-6.144-2.048-12.288 0-18.432 47.104-143.36 184.32-239.616 342.016-239.616s294.912 96.256 342.016 239.616c2.048 6.144 2.048 12.288 0 18.432-47.104 143.36-184.32 239.616-342.016 239.616zM512 257.536c-126.976 0-239.616 75.776-280.576 190.464 40.96 114.688 153.6 190.464 280.576 190.464 129.024 0 239.616-75.776 280.576-190.464-40.96-114.688-153.6-190.464-280.576-190.464zM512 609.792c-16.384 0-30.72-12.288-30.72-30.72 0-16.384 14.336-30.72 30.72-30.72 55.296 0 102.4-45.056 102.4-102.4 0-55.296-45.056-102.4-102.4-102.4-55.296 0-102.4 45.056-102.4 102.4 0 16.384-14.336 30.72-30.72 30.72s-30.72-12.288-30.72-30.72c0-88.064 71.68-161.792 161.792-161.792 88.064 0 161.792 71.68 161.792 161.792 2.048 90.112-71.68 163.84-159.744 163.84z" />
<glyph unicode="&#xe90a;" glyph-name="download" d="M512 761.344c-16.384 0-28.672-12.288-28.672-28.672v-362.496l-153.6 112.64c-12.288 10.24-30.72 6.144-38.912-6.144-10.24-12.288-6.144-30.72 6.144-38.912l198.656-145.408c0 0 0 0 0 0 2.048-2.048 4.096-2.048 6.144-4.096 0 0 2.048 0 2.048 0 2.048 0 4.096-2.048 8.192-2.048 2.048 0 6.144 0 8.192 2.048 0 0 2.048 0 2.048 0 2.048 0 4.096 2.048 6.144 4.096 0 0 0 0 0 0l198.656 145.408c12.288 10.24 16.384 26.624 6.144 38.912-8.192 12.288-26.624 16.384-38.912 6.144l-153.6-112.64v362.496c0 14.336-12.288 28.672-28.672 28.672zM759.808 316.928c-16.384 0-28.672-12.288-28.672-28.672v-96.256h-438.272v96.256c0 16.384-12.288 28.672-28.672 28.672s-28.672-12.288-28.672-28.672v-124.928c0-16.384 12.288-28.672 28.672-28.672h495.616c16.384 0 28.672 12.288 28.672 28.672v124.928c0 16.384-12.288 28.672-28.672 28.672z" />
<glyph unicode="&#xe90b;" glyph-name="sniper" d="M512 839.168c-215.040 0-391.168-176.128-391.168-391.168s176.128-391.168 391.168-391.168c215.040 0 391.168 176.128 391.168 391.168s-176.128 391.168-391.168 391.168zM546.816 126.464v96.256h-67.584v-96.256c-151.552 16.384-272.384 137.216-286.72 286.72h94.208v67.584h-96.256c16.384 151.552 137.216 272.384 286.72 286.72v-94.208h67.584v96.256c151.552-16.384 272.384-137.216 286.72-286.72h-94.208v-67.584h94.208c-14.336-151.552-135.168-272.384-284.672-288.768zM512 486.912c-20.48 0-38.912-16.384-38.912-38.912s16.384-38.912 38.912-38.912 38.912 16.384 38.912 38.912-18.432 38.912-38.912 38.912z" />
<glyph unicode="&#xe90c;" glyph-name="tree" d="M847.872 814.592h-671.744c-16.384 0-30.72-14.336-30.72-30.72v-671.744c0-16.384 14.336-30.72 30.72-30.72h671.744c16.384 0 30.72 14.336 30.72 30.72v671.744c0 16.384-14.336 30.72-30.72 30.72zM817.152 142.848h-610.304v610.304h610.304v-610.304zM608.256 513.536h118.784c16.384 0 30.72 14.336 30.72 30.72s-14.336 30.72-30.72 30.72h-118.784c-16.384 0-30.72-14.336-30.72-30.72-2.048-16.384 12.288-30.72 30.72-30.72zM608.256 288.256h118.784c16.384 0 30.72 14.336 30.72 30.72s-14.336 30.72-30.72 30.72h-118.784c-16.384 0-30.72-14.336-30.72-30.72-2.048-16.384 12.288-30.72 30.72-30.72zM288.768 288.256c2.048 0 6.144 0 8.192 2.048 2.048 0 4.096-2.048 8.192-2.048h77.824v-20.48c0-16.384 14.336-30.72 30.72-30.72h102.4c16.384 0 30.72 14.336 30.72 30.72v102.4c0 16.384-14.336 30.72-30.72 30.72h-102.4c-16.384 0-30.72-14.336-30.72-30.72v-20.48h-61.44v163.84h61.44v-20.48c0-16.384 14.336-30.72 30.72-30.72h102.4c16.384 0 30.72 14.336 30.72 30.72v102.4c0 16.384-14.336 30.72-30.72 30.72h-102.4c-16.384 0-30.72-14.336-30.72-30.72v-20.48h-61.44v98.304c0 16.384-14.336 30.72-30.72 30.72s-30.72-14.336-30.72-30.72v-356.352c-2.048-14.336 12.288-28.672 28.672-28.672zM442.368 339.456h40.96v-40.96h-40.96v40.96zM442.368 566.784h40.96v-40.96h-40.96v40.96z" />
<glyph unicode="&#xe90d;" glyph-name="list" d="M770.048 796.16h-96.256c-12.288 18.432-32.768 30.72-55.296 30.72h-210.944c-24.576 0-45.056-12.288-55.296-30.72h-96.256c-16.384 0-30.72-14.336-30.72-30.72v-665.6c0-16.384 14.336-30.72 30.72-30.72h516.096c16.384 0 30.72 14.336 30.72 30.72v663.552c-2.048 18.432-16.384 32.768-32.768 32.768zM739.328 132.608h-454.656v600.064h61.44c10.24-22.528 32.768-38.912 59.392-38.912h210.944c26.624 0 49.152 16.384 59.392 38.912h61.44v-600.064zM405.504 587.264h-36.864c-8.192 0-14.336-6.144-14.336-14.336v-36.864c0-8.192 6.144-14.336 14.336-14.336h36.864c8.192 0 14.336 6.144 14.336 14.336v36.864c0 8.192-6.144 14.336-14.336 14.336zM669.696 570.88h-200.704c-8.192 0-16.384-6.144-16.384-16.384 0-8.192 6.144-16.384 16.384-16.384h200.704c8.192 0 16.384 6.144 16.384 16.384-2.048 10.24-8.192 16.384-16.384 16.384zM405.504 374.272h-36.864c-8.192 0-14.336-6.144-14.336-14.336v-36.864c0-8.192 6.144-14.336 14.336-14.336h36.864c8.192 0 14.336 6.144 14.336 14.336v36.864c0 8.192-6.144 14.336-14.336 14.336zM669.696 355.84h-200.704c-8.192 0-16.384-6.144-16.384-16.384 0-8.192 6.144-16.384 16.384-16.384h200.704c8.192 0 16.384 6.144 16.384 16.384-2.048 10.24-8.192 16.384-16.384 16.384zM405.504 480.768h-36.864c-8.192 0-14.336-6.144-14.336-14.336v-36.864c0-8.192 6.144-14.336 14.336-14.336h36.864c8.192 0 14.336 6.144 14.336 14.336v36.864c0 8.192-6.144 14.336-14.336 14.336zM669.696 464.384h-200.704c-8.192 0-16.384-6.144-16.384-16.384 0-8.192 6.144-16.384 16.384-16.384h200.704c8.192 0 16.384 6.144 16.384 16.384-2.048 8.192-8.192 16.384-16.384 16.384z" />
<glyph unicode="&#xe90e;" glyph-name="web" d="M512 769.536c-178.176 0-321.536-143.36-321.536-321.536s143.36-321.536 321.536-321.536c178.176 0 321.536 143.36 321.536 321.536s-143.36 321.536-321.536 321.536zM368.64 331.264h129.024v-149.504c-14.336 0-30.72 2.048-45.056 6.144-34.816 26.624-65.536 77.824-83.968 143.36zM243.712 448c0 30.72 6.144 61.44 16.384 90.112h75.776c-4.096-28.672-8.192-59.392-8.192-90.112s2.048-61.44 8.192-90.112h-75.776c-10.24 28.672-16.384 59.392-16.384 90.112zM354.304 448c0 30.72 2.048 61.44 8.192 90.112h135.168v-180.224h-135.168c-4.096 28.672-8.192 59.392-8.192 90.112zM454.656 708.096c14.336 4.096 28.672 4.096 45.056 6.144v-149.504h-131.072c18.432 65.536 49.152 116.736 86.016 143.36zM526.336 714.24c14.336 0 30.72-2.048 45.056-6.144 36.864-26.624 67.584-77.824 83.968-143.36h-129.024v149.504zM751.616 564.736h-69.632c-12.288 49.152-32.768 92.16-57.344 124.928 55.296-26.624 100.352-69.632 126.976-124.928zM659.456 538.112c6.144-28.672 8.192-59.392 8.192-90.112s-2.048-61.44-8.192-90.112h-135.168v180.224h135.168zM653.312 331.264c-16.384-65.536-47.104-116.736-83.968-143.36-14.336-4.096-28.672-4.096-45.056-6.144v149.504h129.024zM624.64 206.336c24.576 32.768 45.056 75.776 57.344 124.928h69.632c-26.624-55.296-71.68-98.304-126.976-124.928zM688.128 357.888c4.096 28.672 8.192 59.392 8.192 90.112s-2.048 61.44-8.192 90.112h75.776c10.24-28.672 16.384-59.392 16.384-90.112s-6.144-61.44-16.384-90.112h-75.776zM397.312 689.664c-24.576-32.768-45.056-75.776-57.344-124.928h-69.632c28.672 55.296 73.728 98.304 126.976 124.928zM272.384 331.264h69.632c12.288-49.152 32.768-92.16 57.344-124.928-55.296 26.624-100.352 69.632-126.976 124.928z" />
<glyph unicode="&#xe90f;" glyph-name="adjunt" d="M512 22.016c-235.52 0-425.984 190.464-425.984 425.984s190.464 425.984 425.984 425.984 425.984-190.464 425.984-425.984-190.464-425.984-425.984-425.984zM512 853.504c-223.232 0-405.504-182.272-405.504-405.504s182.272-405.504 405.504-405.504 405.504 182.272 405.504 405.504-182.272 405.504-405.504 405.504zM567.296 329.216c-6.144 0-10.24 2.048-14.336 6.144-8.192 8.192-8.192 20.48 0 28.672l102.4 102.4c38.912 38.912 38.912 102.4 0 141.312s-102.4 38.912-141.312 0l-180.224-180.224c-8.192-8.192-20.48-8.192-28.672 0s-8.192 20.48 0 28.672l180.224 178.176c55.296 55.296 143.36 55.296 198.656 0s55.296-143.36 0-198.656l-102.4-102.4c-4.096-2.048-8.192-4.096-14.336-4.096v0zM421.888 218.624c-26.624 0-53.248 10.24-73.728 30.72s-30.72 45.056-30.72 73.728c0 28.672 10.24 53.248 30.72 73.728l81.92 81.92c8.192 8.192 20.48 8.192 28.672 0s8.192-20.48 0-28.672l-81.92-81.92c-12.288-12.288-18.432-28.672-18.432-45.056s6.144-32.768 18.432-45.056c24.576-24.576 65.536-24.576 90.112 0l81.92 81.92c8.192 8.192 20.48 8.192 28.672 0s8.192-20.48 0-28.672l-81.92-81.92c-20.48-20.48-47.104-30.72-73.728-30.72v0zM475.136 331.264c-6.144 0-10.24 2.048-14.336 6.144-8.192 8.192-8.192 20.48 0 28.672l137.216 137.216c12.288 12.288 12.288 30.72 0 43.008-12.288 10.24-30.72 10.24-43.008 0l-102.4-102.4c-8.192-8.192-20.48-8.192-28.672 0s-8.192 20.48 0 28.672l102.4 102.4c14.336 14.336 30.72 20.48 49.152 20.48v0c18.432 0 36.864-8.192 49.152-20.48 26.624-26.624 26.624-71.68 0-100.352l-137.216-137.216c-2.048-4.096-6.144-6.144-12.288-6.144v0z" />
<glyph unicode="&#xe910;" glyph-name="gps" d="M512 695.808c-116.736 0-210.944-94.208-210.944-210.944 0-110.592 176.128-264.192 196.608-282.624 4.096-4.096 8.192-4.096 12.288-4.096s10.24 2.048 12.288 4.096c20.48 16.384 196.608 169.984 196.608 282.624 4.096 116.736-90.112 210.944-206.848 210.944zM512 247.296c-57.344 51.2-169.984 167.936-169.984 239.616 0 92.16 75.776 169.984 169.984 169.984s169.984-75.776 169.984-169.984c0-71.68-112.64-188.416-169.984-239.616zM512 589.312c-57.344 0-102.4-45.056-102.4-102.4s45.056-102.4 102.4-102.4c57.344 0 102.4 45.056 102.4 102.4 0 55.296-45.056 102.4-102.4 102.4zM512 425.472c-34.816 0-61.44 26.624-61.44 61.44s26.624 61.44 61.44 61.44 61.44-26.624 61.44-61.44-26.624-61.44-61.44-61.44zM512 873.984c-235.52 0-425.984-190.464-425.984-425.984s190.464-425.984 425.984-425.984 425.984 190.464 425.984 425.984-190.464 425.984-425.984 425.984zM512 42.496c-223.232 0-405.504 182.272-405.504 405.504s182.272 405.504 405.504 405.504 405.504-182.272 405.504-405.504-182.272-405.504-405.504-405.504z" />
<glyph unicode="&#xe911;" glyph-name="send" d="M512 873.984c-235.52 0-425.984-190.464-425.984-425.984s190.464-425.984 425.984-425.984 425.984 190.464 425.984 425.984-190.464 425.984-425.984 425.984zM512 42.496c-223.232 0-405.504 182.272-405.504 405.504s182.272 405.504 405.504 405.504 405.504-182.272 405.504-405.504-182.272-405.504-405.504-405.504zM679.936 601.6h-335.872c-24.576 0-43.008-20.48-43.008-43.008v-219.136c0-24.576 20.48-43.008 43.008-43.008h333.824c24.576 0 43.008 20.48 43.008 43.008v217.088c2.048 24.576-18.432 45.056-40.96 45.056zM679.936 331.264h-335.872c-2.048 0-4.096 0-4.096 2.048l114.688 102.4 51.2-47.104c2.048-2.048 4.096-2.048 6.144-2.048s4.096 0 6.144 2.048l51.2 47.104 114.688-102.4c-2.048 0-2.048-2.048-4.096-2.048zM512 409.088l-172.032 153.6c2.048 2.048 2.048 2.048 4.096 2.048h333.824c2.048 0 4.096 0 4.096-2.048l-169.984-153.6zM337.92 538.112l102.4-90.112-102.4-90.112v180.224zM583.68 448l102.4 90.112v-182.272l-102.4 92.16z" />
<glyph unicode="&#xe912;" glyph-name="phone" d="M512 873.984c-235.52 0-425.984-190.464-425.984-425.984s190.464-425.984 425.984-425.984 425.984 190.464 425.984 425.984-190.464 425.984-425.984 425.984zM512 42.496c-223.232 0-405.504 182.272-405.504 405.504s182.272 405.504 405.504 405.504 405.504-182.272 405.504-405.504-182.272-405.504-405.504-405.504zM729.088 376.32c-36.864 16.384-65.536 26.624-112.64 36.864-2.048 0-4.096 0-8.192 0-2.048 0-28.672 0-38.912-16.384l-24.576-36.864c-4.096 0-8.192 2.048-12.288 4.096-18.432 14.336-38.912 30.72-55.296 47.104-18.432 18.432-34.816 36.864-49.152 57.344-4.096 6.144-4.096 12.288-4.096 12.288l36.864 22.528c14.336 10.24 18.432 36.864 14.336 47.104-10.24 38.912-24.576 79.872-34.816 110.592-6.144 16.384-30.72 22.528-43.008 22.528-4.096 0-10.24 0-14.336-2.048-32.768-12.288-61.44-30.72-86.016-57.344-6.144-6.144-12.288-14.336-20.48-22.528l-4.096-6.144v-6.144c-2.048-92.16 38.912-188.416 114.688-266.24v0l2.048-2.048c73.728-73.728 167.936-114.688 258.048-114.688h14.336l6.144 4.096c8.192 6.144 16.384 12.288 22.528 20.48 24.576 24.576 43.008 53.248 57.344 86.016 8.192 22.528-2.048 51.2-18.432 59.392zM661.504 263.68c-4.096-4.096-8.192-8.192-14.336-12.288-79.872 0-163.84 36.864-227.328 102.4l-2.048 2.048c-65.536 65.536-102.4 149.504-102.4 229.376 4.096 4.096 8.192 10.24 12.288 14.336 20.48 20.48 45.056 36.864 71.68 47.104 2.048 0 4.096 0 6.144-2.048 10.24-28.672 22.528-65.536 32.768-100.352 0-2.048 0-4.096 0-6.144l-32.768-20.48c-8.192-6.144-16.384-14.336-18.432-26.624-2.048-14.336 2.048-30.72 10.24-45.056 14.336-20.48 32.768-40.96 53.248-61.44s40.96-36.864 61.44-51.2c24.576-18.432 59.392-14.336 71.68 6.144l20.48 32.768c2.048 0 4.096 0 4.096 0 43.008-10.24 69.632-18.432 100.352-32.768 0-2.048 2.048-4.096 2.048-4.096-12.288-26.624-28.672-51.2-49.152-71.68z" />
<glyph unicode="&#xe913;" glyph-name="gps-1" d="M512 695.808c-116.736 0-210.944-94.208-210.944-210.944 0-110.592 176.128-264.192 196.608-282.624 4.096-4.096 8.192-4.096 12.288-4.096s10.24 2.048 12.288 4.096c20.48 16.384 196.608 169.984 196.608 282.624 4.096 116.736-90.112 210.944-206.848 210.944zM512 247.296c-57.344 51.2-169.984 167.936-169.984 239.616 0 92.16 75.776 169.984 169.984 169.984s169.984-75.776 169.984-169.984c0-71.68-112.64-188.416-169.984-239.616zM512 589.312c-57.344 0-102.4-45.056-102.4-102.4s45.056-102.4 102.4-102.4c57.344 0 102.4 45.056 102.4 102.4 0 55.296-45.056 102.4-102.4 102.4zM512 425.472c-34.816 0-61.44 26.624-61.44 61.44s26.624 61.44 61.44 61.44 61.44-26.624 61.44-61.44-26.624-61.44-61.44-61.44z" />
<glyph unicode="&#xe914;" glyph-name="send-1" d="M679.936 601.6h-335.872c-24.576 0-43.008-20.48-43.008-43.008v-219.136c0-24.576 20.48-43.008 43.008-43.008h333.824c24.576 0 43.008 20.48 43.008 43.008v217.088c2.048 24.576-18.432 45.056-40.96 45.056zM679.936 331.264h-335.872c-2.048 0-4.096 0-4.096 2.048l114.688 102.4 51.2-47.104c2.048-2.048 4.096-2.048 6.144-2.048s4.096 0 6.144 2.048l51.2 47.104 114.688-102.4c-2.048 0-2.048-2.048-4.096-2.048zM512 409.088l-172.032 153.6c2.048 2.048 2.048 2.048 4.096 2.048h333.824c2.048 0 4.096 0 4.096-2.048l-169.984-153.6zM337.92 538.112l102.4-90.112-102.4-90.112v180.224zM583.68 448l102.4 90.112v-182.272l-102.4 92.16z" />
<glyph unicode="&#xe915;" glyph-name="phone-1" d="M729.088 376.32c-36.864 16.384-65.536 26.624-112.64 36.864-2.048 0-4.096 0-8.192 0-2.048 0-28.672 0-38.912-16.384l-24.576-36.864c-4.096 0-8.192 2.048-12.288 4.096-18.432 14.336-38.912 30.72-55.296 47.104-18.432 18.432-34.816 36.864-49.152 57.344-4.096 6.144-4.096 12.288-4.096 12.288l36.864 22.528c14.336 10.24 18.432 36.864 14.336 47.104-10.24 38.912-24.576 79.872-34.816 110.592-6.144 16.384-30.72 22.528-43.008 22.528-4.096 0-10.24 0-14.336-2.048-32.768-12.288-61.44-30.72-86.016-57.344-6.144-6.144-12.288-14.336-20.48-22.528l-4.096-6.144v-6.144c-2.048-92.16 38.912-188.416 114.688-266.24v0l2.048-2.048c73.728-73.728 167.936-114.688 258.048-114.688h14.336l6.144 4.096c8.192 6.144 16.384 12.288 22.528 20.48 24.576 24.576 43.008 53.248 57.344 86.016 8.192 22.528-2.048 51.2-18.432 59.392zM661.504 263.68c-4.096-4.096-8.192-8.192-14.336-12.288-79.872 0-163.84 36.864-227.328 102.4l-2.048 2.048c-65.536 65.536-102.4 149.504-102.4 229.376 4.096 4.096 8.192 10.24 12.288 14.336 20.48 20.48 45.056 36.864 71.68 47.104 2.048 0 4.096 0 6.144-2.048 10.24-28.672 22.528-65.536 32.768-100.352 0-2.048 0-4.096 0-6.144l-32.768-20.48c-8.192-6.144-16.384-14.336-18.432-26.624-2.048-14.336 2.048-30.72 10.24-45.056 14.336-20.48 32.768-40.96 53.248-61.44s40.96-36.864 61.44-51.2c24.576-18.432 59.392-14.336 71.68 6.144l20.48 32.768c2.048 0 4.096 0 4.096 0 43.008-10.24 69.632-18.432 100.352-32.768 0-2.048 2.048-4.096 2.048-4.096-12.288-26.624-28.672-51.2-49.152-71.68z" />
</font>
</defs>
</svg>
